<?xml version="1.0" standalone="no"?>
<!DOCTYPE svg PUBLIC "-//W3C//DTD SVG 20010904//EN"
 "http://www.w3.org/TR/2001/REC-SVG-20010904/DTD/svg10.dtd">
<svg version="1.0" xmlns="http://www.w3.org/2000/svg"
 width="1024.000000pt" height="1024.000000pt" viewBox="0 0 1024.000000 1024.000000"
 preserveAspectRatio="xMidYMid meet">

<g transform="translate(0.000000,1024.000000) scale(0.100000,-0.100000)"
fill="#000000" stroke="none">
<path d="M1936 9234 c-14 -14 -16 -143 -16 -1272 0 -800 4 -1270 10 -1292 11
-38 1455 -1854 1470 -1848 4 2 32 34 62 73 90 117 82 115 425 115 279 0 293
-1 303 -19 6 -13 10 -191 10 -510 l0 -491 355 0 355 0 0 498 c0 468 1 500 18
515 15 14 50 17 220 19 l202 3 -387 485 c-1989 2490 -2941 3680 -2966 3708
-35 37 -40 38 -61 16z"/>
<path d="M8249 9229 c-11 -11 -242 -298 -513 -637 -270 -339 -880 -1102 -1354
-1695 -474 -593 -862 -1084 -862 -1090 0 -37 0 -37 1027 -37 898 0 1007 2
1043 16 34 14 84 72 357 412 174 218 327 412 340 431 l23 34 0 1287 c0 1165
-2 1288 -16 1294 -22 8 -22 8 -45 -15z"/>
<path d="M5560 4185 l0 -195 280 0 c270 0 280 1 290 20 14 25 19 16 -134 208
l-130 162 -153 0 -153 0 0 -195z"/>
</g>
</svg>
